<svg width="1200" height="800" viewBox="0 0 1200 800" xmlns="http://www.w3.org/2000/svg" role="img" aria-labelledby="title desc">
  <title id="title">Placeholder confort passagers</title>
  <desc id="desc">Illustration indiquant le confort des passagers dans la DS7.</desc>
  <defs>
    <linearGradient id="bg" x1="0%" y1="0%" x2="100%" y2="100%">
      <stop stop-color="#0b1726" offset="0%"/>
      <stop stop-color="#162b42" offset="100%"/>
    </linearGradient>
    <linearGradient id="accent" x1="0%" y1="0%" x2="100%" y2="0%">
      <stop stop-color="#d9b86d" offset="0%"/>
      <stop stop-color="#c99d3f" offset="100%"/>
    </linearGradient>
  </defs>
  <rect width="1200" height="800" fill="url(#bg)"/>
  <circle cx="220" cy="170" r="120" fill="#d9b86d" opacity="0.16"/>
  <rect x="140" y="200" width="920" height="430" rx="36" fill="#101b2a" stroke="#1f2e3f" stroke-width="5"/>
  <path d="M240 470 Q340 380 450 470 T660 470" fill="none" stroke="url(#accent)" stroke-width="12" stroke-linecap="round"/>
  <path d="M360 470 Q480 370 600 470 T820 470" fill="none" stroke="#6fa6ff" stroke-width="8" stroke-linecap="round" opacity="0.6"/>
  <g transform="translate(260 260)">
    <rect width="240" height="160" rx="24" fill="#f6f7fb" stroke="#dfe4eb" stroke-width="4"/>
    <rect x="20" y="90" width="200" height="16" rx="8" fill="#d9b86d" opacity="0.8"/>
    <rect x="60" y="40" width="120" height="24" rx="12" fill="#0b1726"/>
  </g>
  <g transform="translate(510 260)">
    <rect width="240" height="160" rx="24" fill="#f6f7fb" stroke="#dfe4eb" stroke-width="4"/>
    <rect x="20" y="90" width="200" height="16" rx="8" fill="#6fa6ff" opacity="0.8"/>
    <rect x="60" y="40" width="120" height="24" rx="12" fill="#0b1726"/>
  </g>
  <g transform="translate(760 260)">
    <rect width="200" height="160" rx="24" fill="#f6f7fb" stroke="#dfe4eb" stroke-width="4"/>
    <rect x="16" y="90" width="168" height="16" rx="8" fill="#d9b86d" opacity="0.8"/>
    <rect x="50" y="40" width="100" height="24" rx="12" fill="#0b1726"/>
  </g>
  <text x="170" y="140" fill="#f4f6f9" font-family="Manrope, Arial, sans-serif" font-size="40" font-weight="700">Confort des passagers</text>
  <text x="170" y="180" fill="#c8d0dc" font-family="Manrope, Arial, sans-serif" font-size="24">Espace, lumière douce, climat réglé pour votre trajet</text>
  <text x="170" y="710" fill="#c8d0dc" font-family="Manrope, Arial, sans-serif" font-size="20">Placeholder visuel - remplacez par vos photos réelles</text>
</svg>
