<svg width="1200" height="800" viewBox="0 0 1200 800" xmlns="http://www.w3.org/2000/svg" role="img" aria-labelledby="title desc">
  <title id="title">Placeholder extérieur DS7 blanche</title>
  <desc id="desc">Illustration stylisée d'une DS7 blanche devant un paysage doux.</desc>
  <defs>
    <linearGradient id="sky" x1="0%" y1="0%" x2="0%" y2="100%">
      <stop stop-color="#0c1c2c" offset="0%"/>
      <stop stop-color="#152c44" offset="60%"/>
      <stop stop-color="#0e1f31" offset="100%"/>
    </linearGradient>
    <linearGradient id="car" x1="0%" y1="0%" x2="100%" y2="100%">
      <stop stop-color="#f7f8fb" offset="0%"/>
      <stop stop-color="#dfe5ec" offset="100%"/>
    </linearGradient>
  </defs>
  <rect width="1200" height="800" fill="url(#sky)"/>
  <circle cx="1050" cy="140" r="120" fill="#d9b86d" opacity="0.28"/>
  <rect x="0" y="520" width="1200" height="280" fill="#0a1421"/>
  <rect x="0" y="500" width="1200" height="40" fill="#1a3046" opacity="0.7"/>
  <rect x="90" y="470" width="1020" height="16" fill="#d9b86d" opacity="0.65"/>
  <g transform="translate(160 350)">
    <rect x="0" y="120" rx="18" ry="18" width="880" height="140" fill="#0d1724" stroke="#1f2e3f" stroke-width="6"/>
    <rect x="60" y="40" rx="40" ry="40" width="760" height="180" fill="url(#car)" stroke="#d9dee4" stroke-width="6"/>
    <rect x="80" y="60" rx="30" ry="30" width="340" height="90" fill="#eef2f7"/>
    <rect x="430" y="60" rx="30" ry="30" width="330" height="90" fill="#eef2f7"/>
    <rect x="780" y="90" width="20" height="70" fill="#d9b86d"/>
    <circle cx="200" cy="210" r="58" fill="#0d1724" stroke="#d9dee4" stroke-width="8"/>
    <circle cx="200" cy="210" r="26" fill="#d9dee4"/>
    <circle cx="660" cy="210" r="58" fill="#0d1724" stroke="#d9dee4" stroke-width="8"/>
    <circle cx="660" cy="210" r="26" fill="#d9dee4"/>
    <rect x="230" y="150" width="270" height="12" fill="#b1b9c5" opacity="0.9"/>
    <rect x="520" y="150" width="100" height="12" fill="#b1b9c5" opacity="0.9"/>
  </g>
  <text x="60" y="110" fill="#f4f6f9" font-family="Manrope, Arial, sans-serif" font-size="46" font-weight="700">TAXI DAGES SYLVAIN</text>
  <text x="60" y="160" fill="#c8d0dc" font-family="Manrope, Arial, sans-serif" font-size="28">DS7 blanche - extérieur élégant</text>
  <text x="60" y="720" fill="#c8d0dc" font-family="Manrope, Arial, sans-serif" font-size="22">Placeholder visuel - remplacez par vos photos réelles</text>
</svg>
